<svg   id="chart"   width="1000"   height="200"   viewBox="0 0 1000 200"   xmlns="http://www.w3.org/2000/svg" >      <path d="M 0,31.64537413203283 C 10.600000000000001,38.3571965533183 31.799999999999997,66.70274247763285 53,65.20448623846016 C 74.2,63.706229999287466 84.8,32.57781607141736 106,24.15409293616935 C 127.2,15.73036980092134 137.8,8.999854073398948 159,23.085870562220126 C 180.2,37.1718870510413 190.8,77.43831903930999 212,94.58417538027524 C 233.2,111.7300317212405 243.8,106.94121291642593 265,108.81515226704637 C 286.2,110.68909161766682 296.8,98.15368885102967 318,103.95387213337749 C 339.2,109.75405541572532 349.8,142.92029624536679 371,137.8160686787855 C 392.2,132.71184111220424 402.8,77.68057162306005 424,78.4327343004712 C 445.2,79.18489697788235 455.8,132.06844657200813 477,141.5768820658413 C 498.2,151.08531755967445 508.8,126.14426805411173 530,125.97491176963696 C 551.2,125.8055554851622 561.8,134.50335942536177 583,140.73010064346747 C 604.2,146.95684186157317 614.8,179.47125256211123 636,157.10861786016545 C 657.2,134.74598315821967 667.8,35.86930034303032 689,28.916927133738568 C 710.2,21.96455392444682 720.8,104.81989924393554 742,122.34675181370672 C 763.2,139.8736043834779 773.8,110.01577453343656 795,116.55118998259444 C 816.2,123.08660543175232 826.8,162.04480797244386 848,155.0238290594961 C 869.2,148.00285014654835 879.8,85.70228895758368 901,81.44629541785568 C 922.2,77.19030187812768 932.8,128.58005868293236 954,133.74386136085616 C 975.2,138.90766403877993 996.4,112.56101931815091 1007,107.2653088074746,L 1000 200,L 0 200Z" fill="#444cf71a" />   <path d="M 0,31.64537413203283 C 10.600000000000001,38.3571965533183 31.799999999999997,66.70274247763285 53,65.20448623846016 C 74.2,63.706229999287466 84.8,32.57781607141736 106,24.15409293616935 C 127.2,15.73036980092134 137.8,8.999854073398948 159,23.085870562220126 C 180.2,37.1718870510413 190.8,77.43831903930999 212,94.58417538027524 C 233.2,111.7300317212405 243.8,106.94121291642593 265,108.81515226704637 C 286.2,110.68909161766682 296.8,98.15368885102967 318,103.95387213337749 C 339.2,109.75405541572532 349.8,142.92029624536679 371,137.8160686787855 C 392.2,132.71184111220424 402.8,77.68057162306005 424,78.4327343004712 C 445.2,79.18489697788235 455.8,132.06844657200813 477,141.5768820658413 C 498.2,151.08531755967445 508.8,126.14426805411173 530,125.97491176963696 C 551.2,125.8055554851622 561.8,134.50335942536177 583,140.73010064346747 C 604.2,146.95684186157317 614.8,179.47125256211123 636,157.10861786016545 C 657.2,134.74598315821967 667.8,35.86930034303032 689,28.916927133738568 C 710.2,21.96455392444682 720.8,104.81989924393554 742,122.34675181370672 C 763.2,139.8736043834779 773.8,110.01577453343656 795,116.55118998259444 C 816.2,123.08660543175232 826.8,162.04480797244386 848,155.0238290594961 C 869.2,148.00285014654835 879.8,85.70228895758368 901,81.44629541785568 C 922.2,77.19030187812768 932.8,128.58005868293236 954,133.74386136085616 C 975.2,138.90766403877993 996.4,112.56101931815091 1007,107.2653088074746" fill="none" stroke="#444cf7" stroke-width="4px" />   <g>   <circle cx="0" cy="31.64537413203283" r="8" fill="#444cf7" />,<circle cx="53" cy="65.20448623846016" r="8" fill="#444cf7" />,<circle cx="106" cy="24.15409293616935" r="8" fill="#444cf7" />,<circle cx="159" cy="23.085870562220126" r="8" fill="#444cf7" />,<circle cx="212" cy="94.58417538027524" r="8" fill="#444cf7" />,<circle cx="265" cy="108.81515226704637" r="8" fill="#444cf7" />,<circle cx="318" cy="103.95387213337749" r="8" fill="#444cf7" />,<circle cx="371" cy="137.8160686787855" r="8" fill="#444cf7" />,<circle cx="424" cy="78.4327343004712" r="8" fill="#444cf7" />,<circle cx="477" cy="141.5768820658413" r="8" fill="#444cf7" />,<circle cx="530" cy="125.97491176963696" r="8" fill="#444cf7" />,<circle cx="583" cy="140.73010064346747" r="8" fill="#444cf7" />,<circle cx="636" cy="157.10861786016545" r="8" fill="#444cf7" />,<circle cx="689" cy="28.916927133738568" r="8" fill="#444cf7" />,<circle cx="742" cy="122.34675181370672" r="8" fill="#444cf7" />,<circle cx="795" cy="116.55118998259444" r="8" fill="#444cf7" />,<circle cx="848" cy="155.0238290594961" r="8" fill="#444cf7" />,<circle cx="901" cy="81.44629541785568" r="8" fill="#444cf7" />,<circle cx="954" cy="133.74386136085616" r="8" fill="#444cf7" />,<circle cx="1007" cy="107.2653088074746" r="8" fill="#444cf7" />   </g> </svg>